<?xml version="1.0" encoding="utf-8"?>
<!-- Generator: Adobe Illustrator 25.2.1, SVG Export Plug-In . SVG Version: 6.00 Build 0)  -->
<svg version="1.1" id="Capa_1" xmlns="http://www.w3.org/2000/svg" xmlns:xlink="http://www.w3.org/1999/xlink" x="0px" y="0px"
	 viewBox="0 0 512 512" style="enable-background:new 0 0 512 512;" xml:space="preserve">
<style type="text/css">
	.st0{fill:#FFFFFF;}
	.st1{font-family:'NunitoSans-Black';}
	.st2{font-size:56.6801px;}
</style>
<g>
	<g>
		<path class="st0" d="M226.4,269.9L95,211.9c-5-2.2-10.6,1.5-10.6,6.9c0,4.9,0,167.1,0,171.2c0,5.4,3.2,10.4,8.2,12.6l127.7,56.3
			c1,0.4,2,0.6,3,0.6c1.4,0,2.9-0.4,4.1-1.2c2.1-1.4,3.4-3.8,3.4-6.3c0-4.4,0-170.3,0-175.2C230.9,273.8,229.1,271.1,226.4,269.9z
			 M215.8,440.5L99.5,389.1V277l116.3,51.3V440.5z M215.8,311.9L99.5,260.6v-30.2l116.3,51.3V311.9z"/>
	</g>
</g>
<g>
	<g>
		<path class="st0" d="M196.7,349.9L124,317.9c-3.8-1.7-8.2,0-9.9,3.8c-1.7,3.8,0,8.2,3.8,9.9l72.7,32.1c3.8,1.7,8.3-0.1,9.9-3.8
			C202.2,356.1,200.5,351.6,196.7,349.9z"/>
	</g>
</g>
<g>
	<g>
		<path class="st0" d="M196.7,383.8L124,351.8c-3.8-1.7-8.2,0-9.9,3.8c-1.7,3.8,0,8.2,3.8,9.9l72.7,32.1c3.8,1.7,8.2,0,9.9-3.8
			C202.2,389.9,200.5,385.5,196.7,383.8z"/>
	</g>
</g>
<g>
	<g>
		<g>
			<path class="st0" d="M452.7,310.7c-4.2,0-7.5,3.4-7.5,7.5v93.4c0,0.7-0.4,1.3-1.1,1.6l-180.6,79.7V247l47.1-20.8l134.6-59.4
				v116.2c0,4.2,3.4,7.5,7.5,7.5c4.2,0,7.5-3.4,7.5-7.5c0-4.3,0-129.4,0-127.8c0-3-1.8-5.7-4.5-6.9l-109.8-47.7
				c5.2-48.6-28.2-91-72.9-100.5C269-0.7,265,1.9,264.1,6c-0.9,4.1,1.7,8.1,5.8,8.9C327.2,27,351.5,97,312,141.8h-15.9
				c47.2-38.5,20.5-117.4-42.2-117.4c-62.1,0-89.8,77.8-42,117.4h-16.1C156.6,97.3,180.3,27,237.9,14.9c4.1-0.9,6.7-4.8,5.8-8.9
				c-0.9-4.1-4.8-6.7-8.9-5.8c-46,9.7-78.9,53.6-72.7,102.2l-105.8,46c-2.6,1.1-4.5,3.8-4.5,6.8c0,0,0,0.1,0,0.1c0,0,0,0,0,0
				s0,0,0,0v256.3c0,6.7,3.9,12.7,10,15.4L253,511.4c1.9,0.8,4.1,0.9,6.1,0L450.2,427c6.1-2.7,10-8.7,10-15.4v-93.4
				C460.3,314,456.9,310.7,452.7,310.7z M253.9,39.5c22.5,0,42.2,14.4,48.9,35.9c13.7,44.1-33,80.8-72.2,60.7
				C182.8,111.6,200.6,39.5,253.9,39.5z M66.8,411.6V166.8c5.1,2.3,177.5,78.3,181.7,80.2v245.9L67.8,413.2
				C67.2,413,66.8,412.3,66.8,411.6z M256,233.9L78,155.3l87.3-38c2.6,8.6,6.5,16.8,11.6,24.5h-4.3c-4.2,0-7.5,3.4-7.5,7.5
				c0,4.2,3.4,7.5,7.5,7.5c5.6,0,152.3,0,162.8,0c4.2,0,7.5-3.4,7.5-7.5c0-4.2-3.4-7.5-7.5-7.5H331c5.4-8.1,9.4-16.9,12-26.1
				l91,39.6L256,233.9z"/>
		</g>
	</g>
	<text transform="matrix(1 0 0 1 219.0444 104.3198)" class="st0 st1 st2">Rp</text>
</g>
</svg>
